<?xml version="1.0" encoding="UTF-8" standalone="no"?>
<svg width="32px" height="32px" viewBox="0 0 32 32" version="1.1" xmlns="http://www.w3.org/2000/svg" xmlns:xlink="http://www.w3.org/1999/xlink">
    <!-- Generator: Sketch 39.1 (31720) - http://www.bohemiancoding.com/sketch -->
    <title>9_Info_32</title>
    <desc>Created with Sketch.</desc>
    <defs></defs>
    <g id="9_Info" stroke="none" stroke-width="1" fill="none" fill-rule="evenodd">
        <g id="9_Info_32" fill="#585858">
            <g id="Page-1">
                <path d="M16,0 C7.163,0 0,7.163 0,16 C0,24.837 7.163,32 16,32 C24.837,32 32,24.837 32,16 C32,7.163 24.837,0 16,0 M16,1.4 C24.05,1.4 30.6,7.95 30.6,16 C30.6,24.05 24.05,30.6 16,30.6 C7.95,30.6 1.4,24.05 1.4,16 C1.4,7.95 7.95,1.4 16,1.4" id="Fill-1"></path>
                <path d="M18,22.4502 L14,22.4502 C13.613,22.4502 13.3,22.1372 13.3,21.7502 C13.3,21.3632 13.613,21.0502 14,21.0502 L18,21.0502 C18.387,21.0502 18.7,21.3632 18.7,21.7502 C18.7,22.1372 18.387,22.4502 18,22.4502" id="Fill-3"></path>
                <path d="M16,22.2002 C15.613,22.2002 15.3,21.8872 15.3,21.5002 L15.3,15.1912 L14,15.1912 C13.613,15.1912 13.3,14.8772 13.3,14.4912 C13.3,14.1042 13.613,13.7902 14,13.7902 L16,13.7902 C16.387,13.7902 16.7,14.1042 16.7,14.4912 L16.7,21.5002 C16.7,21.8872 16.387,22.2002 16,22.2002" id="Fill-5"></path>
                <path d="M17.25,10.75 C17.25,11.44 16.69,12 16,12 C15.31,12 14.75,11.44 14.75,10.75 C14.75,10.06 15.31,9.5 16,9.5 C16.69,9.5 17.25,10.06 17.25,10.75" id="Fill-7"></path>
            </g>
        </g>
    </g>
</svg>